# xmcd
#
# Track frame offsets:
#  150
#  10040
#  34370
#  45987
#  73390
#  87177
#  99250
#  108747
#  120537
#  164880
#  175312
#  222905
#  258015
#  292337
#  319275
#
# Disc length: 4654 seconds
#
# Revision: 0
# Processed by: cddbd v1.5.1PL2 Copyright (c) Steve Scherf et al.
# Submitted via: Collectorz.com_Music_Collector 6.9
#
DISCID=de122c0f
DTITLE=Ten Years After - Ten Years After (1967)/Undead (1968)
DYEAR=1968
DGENRE=Blues
TTITLE0=I want to know
TTITLE1=I can't keep from cruing, sometimes
TTITLE2=Adventures of a young organ
TTITLE3=Spoonful
TTITLE4=Losing the dogs
TTITLE5=Feel it for me
TTITLE6=Love unit I die
TTITLE7=Don't want you woman
TTITLE8=Help me
TTITLE9=Bonus: Portable people
TTITLE10=I May be wrong, but I won't be wrong always
TTITLE11=At the woodchoppers' ball
TTITLE12=Spider in my web
TTITLE13=Summertime into Shantung Cabbage
TTITLE14=I'm going home
EXTD=
EXTT0=
EXTT1=
EXTT2=
EXTT3=
EXTT4=
EXTT5=
EXTT6=
EXTT7=
EXTT8=
EXTT9=
EXTT10=
EXTT11=
EXTT12=
EXTT13=
EXTT14=
PLAYORDER=
